<svg width="10" height="10" viewBox="0 0 10 10" fill="none" xmlns="http://www.w3.org/2000/svg">
<path d="M6 4.99994C6 5.55193 5.55202 5.99989 5 5.99989C4.44798 5.99989 4 5.55193 4 4.99994C4 4.44796 4.44798 4 5 4C5.55202 4 6 4.44796 6 4.99994Z" fill="white"/>
<path d="M0.999943 4C1.55193 4 1.99989 4.44798 1.99989 5C1.99989 5.55202 1.55193 6 0.999943 6C0.447957 6 -3.77623e-08 5.55202 -8.42938e-08 5C-1.30825e-07 4.44798 0.447957 4 0.999943 4Z" fill="white"/>
<path d="M2.99994 4C3.55193 4 3.99989 4.44798 3.99989 5C3.99989 5.55202 3.55193 6 2.99994 6C2.44796 6 2 5.55202 2 5C2 4.44798 2.44796 4 2.99994 4Z" fill="white"/>
<path d="M6.99994 4C7.55193 4 7.99989 4.44798 7.99989 5C7.99989 5.55202 7.55193 6 6.99994 6C6.44796 6 6 5.55202 6 5C6 4.44798 6.44796 4 6.99994 4Z" fill="white"/>
<path d="M8.99994 4C9.55193 4 9.99989 4.44798 9.99989 5C9.99989 5.55202 9.55193 6 8.99994 6C8.44796 6 8 5.55202 8 5C8 4.44798 8.44796 4 8.99994 4Z" fill="white"/>
<path d="M4.99994 4C5.55193 4 5.99989 4.44798 5.99989 5C5.99989 5.55202 5.55193 6 4.99994 6C4.44796 6 4 5.55202 4 5C4 4.44798 4.44796 4 4.99994 4Z" fill="white"/>
<path d="M4 9.00006C4 8.44807 4.44798 8.00011 5 8.00011C5.55202 8.00011 6 8.44807 6 9.00006C6 9.55204 5.55202 10 5 10C4.44798 10 4 9.55204 4 9.00006Z" fill="white"/>
<path d="M4 7.00006C4 6.44807 4.44798 6.00011 5 6.00011C5.55202 6.00011 6 6.44807 6 7.00006C6 7.55204 5.55202 8 5 8C4.44798 8 4 7.55204 4 7.00006Z" fill="white"/>
<path d="M4 3.00006C4 2.44807 4.44798 2.00011 5 2.00011C5.55202 2.00011 6 2.44807 6 3.00006C6 3.55204 5.55202 4 5 4C4.44798 4 4 3.55204 4 3.00006Z" fill="white"/>
<path d="M4 1.00006C4 0.448071 4.44798 0.000113209 5 0.000113138C5.55202 0.000113068 6 0.448071 6 1.00006C6 1.55204 5.55202 2 5 2C4.44798 2 4 1.55204 4 1.00006Z" fill="white"/>
</svg>
