<svg width="10" height="2" viewBox="0 0 10 2" fill="none" xmlns="http://www.w3.org/2000/svg">
<path d="M6 0.999943C6 1.55193 5.55202 1.99989 5 1.99989C4.44798 1.99989 4 1.55193 4 0.999943C4 0.447957 4.44798 -1.88863e-08 5 -4.21584e-08C5.55202 -6.54305e-08 6 0.447957 6 0.999943Z" fill="white"/>
<path d="M0.999943 3.49204e-08C1.55193 -1.16085e-08 1.99989 0.447981 1.99989 0.999998C1.99989 1.55202 1.55193 2 0.999943 2C0.447957 2 -3.77623e-08 1.55202 -8.42938e-08 0.999998C-1.30825e-07 0.447981 0.447957 8.14493e-08 0.999943 3.49204e-08Z" fill="white"/>
<path d="M2.99994 3.49204e-08C3.55193 -1.16085e-08 3.99989 0.447981 3.99989 0.999998C3.99989 1.55202 3.55193 2 2.99994 2C2.44796 2 2 1.55202 2 0.999998C2 0.447981 2.44796 8.14493e-08 2.99994 3.49204e-08Z" fill="white"/>
<path d="M6.99994 3.49204e-08C7.55193 -1.16085e-08 7.99989 0.447981 7.99989 0.999998C7.99989 1.55202 7.55193 2 6.99994 2C6.44796 2 6 1.55202 6 0.999998C6 0.447981 6.44796 8.14493e-08 6.99994 3.49204e-08Z" fill="white"/>
<path d="M8.99994 3.49204e-08C9.55193 -1.16085e-08 9.99989 0.447981 9.99989 0.999998C9.99989 1.55202 9.55193 2 8.99994 2C8.44796 2 8 1.55202 8 0.999998C8 0.447981 8.44796 8.14493e-08 8.99994 3.49204e-08Z" fill="white"/>
</svg>
